<svg width="16" height="16" viewBox="0 0 16 16" fill="none" xmlns="http://www.w3.org/2000/svg">
<circle cx="8" cy="8" r="8" fill="black"/>
<path d="M8 0C3.58214 0 0 3.58214 0 8C0 12.4179 3.58214 16 8 16C12.4179 16 16 12.4179 16 8C16 3.58214 12.4179 0 8 0ZM11.4286 8.42857C11.4286 8.50714 11.3643 8.57143 11.2857 8.57143H4.71429C4.63571 8.57143 4.57143 8.50714 4.57143 8.42857V7.57143C4.57143 7.49286 4.63571 7.42857 4.71429 7.42857H11.2857C11.3643 7.42857 11.4286 7.49286 11.4286 7.57143V8.42857Z" fill="#D1D1D1"/>
</svg>
